<?xml version="1.0" encoding="UTF-8" standalone="no"?>
<svg width="200px" height="30px" viewBox="0 0 200 30" version="1.1" xmlns="http://www.w3.org/2000/svg" xmlns:xlink="http://www.w3.org/1999/xlink">
    <!-- Generator: Sketch 41.1 (35376) - http://www.bohemiancoding.com/sketch -->
    <title>bq-logo</title>
    <desc>Created with Sketch.</desc>
    <defs></defs>
    <g id="Page-1" stroke="none" stroke-width="1" fill="none" fill-rule="evenodd">
        <g id="bq-logo" fill="#FFFFFF">
            <g id="Page-1">
                <g id="Artboard-8-Copy-2">
                    <g id="Group">
                        <g id="Layer_1" transform="translate(0.000000, 0.092593)">
                            <rect id="Rectangle-path" x="121.666667" y="0" width="1.48148148" height="29.1666667"></rect>
                            <path d="M7.59259259,16.6666667 C8.56481481,16.6666667 9.21296296,16.0648148 9.21296296,15.0925926 C9.21296296,14.0740741 8.47222222,13.5185185 7.5462963,13.5185185 L4.35185185,13.5185185 L4.35185185,16.6666667 L7.59259259,16.6666667 L7.59259259,16.6666667 Z M7.17592593,10.462963 C8.05555556,10.462963 8.61111111,10.0462963 8.61111111,9.16666667 C8.61111111,8.33333333 8.00925926,7.82407407 7.12962963,7.82407407 L4.35185185,7.82407407 L4.35185185,10.462963 L7.17592593,10.462963 L7.17592593,10.462963 Z M0,4.21296296 L7.96296296,4.21296296 C9.44444444,4.21296296 10.6018519,4.58333333 11.3888889,5.23148148 C12.3148148,5.97222222 12.8703704,7.08333333 12.8703704,8.42592593 C12.8703704,9.9537037 12.2685185,10.9259259 10.9722222,11.5277778 L10.9722222,11.5740741 C12.6388889,12.1296296 13.6111111,13.6111111 13.6111111,15.462963 C13.6111111,17.2222222 12.962963,18.5185185 11.8518519,19.3055556 C10.9259259,20 9.72222222,20.3240741 8.14814815,20.3240741 L0,20.3240741 L0,4.21296296 L0,4.21296296 Z" id="Shape"></path>
                            <rect id="Rectangle-path" x="14.3981481" y="4.21296296" width="4.16666667" height="16.1574074"></rect>
                            <path d="M27.1296296,14.6296296 C27.1296296,12.6851852 26.4814815,11.3888889 25.2314815,11.3888889 C23.9814815,11.3888889 23.3796296,12.6851852 23.3796296,14.6296296 C23.3796296,16.5740741 23.9814815,17.8703704 25.2314815,17.8703704 C26.4814815,17.8703704 27.1296296,16.5740741 27.1296296,14.6296296 M19.2592593,14.6296296 C19.2592593,11.1111111 21.6203704,8.51851852 25.2777778,8.51851852 C28.9351852,8.51851852 31.25,11.1574074 31.25,14.6296296 C31.25,18.1018519 28.9351852,20.7407407 25.2777778,20.7407407 C21.6203704,20.7407407 19.2592593,18.1018519 19.2592593,14.6296296" id="Shape"></path>
                            <path d="M39.537037,14.6296296 C39.537037,12.6851852 38.8888889,11.3888889 37.6388889,11.3888889 C36.3888889,11.3888889 35.787037,12.6851852 35.787037,14.6296296 C35.787037,16.5740741 36.3888889,17.8703704 37.6388889,17.8703704 C38.8888889,17.8703704 39.537037,16.5740741 39.537037,14.6296296 M31.712963,14.6296296 C31.712963,11.1111111 34.0740741,8.51851852 37.7314815,8.51851852 C41.3888889,8.51851852 43.7037037,11.1574074 43.7037037,14.6296296 C43.7037037,18.1018519 41.3888889,20.7407407 37.7314815,20.7407407 C34.0740741,20.7407407 31.712963,18.1018519 31.712963,14.6296296" id="Shape"></path>
                            <path d="M44.5833333,8.84259259 L48.4259259,8.84259259 L48.4259259,10.5555556 L48.4722222,10.5555556 C49.2592593,9.21296296 50.2777778,8.47222222 51.9444444,8.47222222 C53.4259259,8.47222222 54.4907407,9.21296296 55.0462963,10.462963 L55.0925926,10.462963 C56.0185185,8.93518519 57.2685185,8.47222222 58.6574074,8.47222222 C61.3425926,8.47222222 62.5,10.462963 62.5,13.1018519 L62.5,20.3703704 L58.4259259,20.3703704 L58.4259259,13.8888889 C58.4259259,12.7314815 58.0555556,11.9444444 57.037037,11.9444444 C56.0185185,11.9444444 55.5092593,12.8703704 55.5092593,14.1203704 L55.5092593,20.3703704 L51.4351852,20.3703704 L51.4351852,13.8888889 C51.4351852,12.7314815 51.0648148,11.9444444 50.0462963,11.9444444 C49.0277778,11.9444444 48.5185185,12.8703704 48.5185185,14.1203704 L48.5185185,20.3703704 L44.4444444,20.3703704 L44.4444444,8.84259259 L44.5833333,8.84259259 Z" id="Shape"></path>
                            <path d="M71.5740741,14.537037 C71.5740741,12.7314815 70.9259259,11.5740741 69.6759259,11.5740741 C68.4259259,11.5740741 67.5925926,12.8703704 67.5925926,14.537037 C67.5925926,16.25 68.4259259,17.5 69.6759259,17.5 C70.9259259,17.5 71.5740741,16.3425926 71.5740741,14.537037 M67.6388889,18.8888889 L67.6388889,18.8888889 L67.5925926,20.3703704 L63.75,20.3703704 L63.75,4.21296296 L67.8240741,4.21296296 L67.8240741,10.0462963 L67.8703704,10.0462963 C68.6574074,9.02777778 69.6296296,8.47222222 71.1111111,8.47222222 C74.0740741,8.47222222 75.7407407,11.25 75.7407407,14.5833333 C75.7407407,18.5185185 73.9814815,20.7407407 71.0648148,20.7407407 C69.6296296,20.7407407 68.3333333,20.1851852 67.6388889,18.8888889" id="Shape"></path>
                            <path d="M80.3703704,13.3796296 L84.1666667,13.3796296 C83.9814815,12.0833333 83.287037,11.3425926 82.3611111,11.3425926 C81.2037037,11.2962963 80.6018519,12.1296296 80.3703704,13.3796296 M76.3888889,14.5833333 C76.3888889,11.1111111 78.75,8.47222222 82.2222222,8.47222222 C83.9351852,8.47222222 85.2314815,9.07407407 86.25,10.0462963 C87.5925926,11.3425926 88.1944444,13.3796296 88.1481481,15.6944444 L80.3240741,15.6944444 C80.5555556,17.037037 81.25,17.8240741 82.4537037,17.8240741 C83.1481481,17.8240741 83.6574074,17.5462963 83.9814815,16.9444444 L87.9166667,16.9444444 C87.6851852,17.962963 86.8981481,18.9814815 85.8333333,19.7222222 C84.8148148,20.4166667 83.75,20.6944444 82.3148148,20.6944444 C78.7962963,20.6944444 76.3888889,18.1018519 76.3888889,14.5833333" id="Shape"></path>
                            <path d="M92.5462963,10.5555556 L92.5925926,10.5555556 C93.4722222,9.12037037 94.537037,8.56481481 95.9259259,8.56481481 C96.25,8.56481481 96.4814815,8.61111111 96.5740741,8.65740741 L96.5740741,12.3148148 L96.4814815,12.3148148 C94.1203704,11.8981481 92.6851852,13.0092593 92.6851852,15.6018519 L92.6851852,20.3703704 L88.6111111,20.3703704 L88.6111111,8.84259259 L92.4537037,8.84259259 L92.4537037,10.5555556 L92.5462963,10.5555556 Z" id="Shape"></path>
                            <path d="M104.675926,14.1666667 C104.675926,12.7314815 103.981481,11.5740741 102.824074,11.5740741 C101.666667,11.5740741 100.972222,12.5925926 100.972222,14.1666667 C100.972222,15.6944444 101.712963,16.8055556 102.824074,16.8055556 C103.981481,16.8055556 104.675926,15.6944444 104.675926,14.1666667 M97.2222222,20.5555556 L101.111111,20.5555556 C101.25,21.0185185 101.759259,21.5277778 102.731481,21.5277778 C104.027778,21.5277778 104.490741,20.6944444 104.490741,19.537037 L104.490741,18.5185185 L104.398148,18.5185185 C103.75,19.3055556 102.916667,19.8148148 101.62037,19.8148148 C99.1203704,19.8148148 96.9444444,17.962963 96.9444444,14.3518519 C96.9444444,11.0648148 98.7037037,8.47222222 101.435185,8.47222222 C102.962963,8.47222222 103.935185,9.12037037 104.537037,10.0925926 L104.583333,10.0925926 L104.583333,8.84259259 L108.425926,8.84259259 L108.425926,18.9814815 C108.425926,20.8333333 107.777778,22.2685185 106.805556,23.1018519 C105.787037,24.0277778 104.351852,24.3518519 102.731481,24.3518519 C99.7222222,24.3981481 97.5925926,23.1018519 97.2222222,20.5555556" id="Shape"></path>
                            <path d="M149.444444,29.1203704 C149.12037,29.1666667 148.796296,29.1203704 148.518519,29.0740741 C147.962963,29.0277778 147.407407,28.9814815 146.898148,28.8888889 C146.018519,28.75 145.185185,28.4722222 144.351852,28.1018519 C142.777778,27.3611111 141.666667,26.4351852 140.648148,25.0462963 C139.768519,23.8425926 139.027778,22.7314815 137.685185,22.7314815 C137.314815,22.7314815 136.62037,23.0555556 136.388889,23.1481481 C136.018519,22.8703704 135.833333,22.6851852 135.787037,22.4537037 C135.694444,22.1296296 136.064815,21.9907407 136.203704,21.9444444 C136.527778,21.7592593 136.898148,21.6666667 137.268519,21.5740741 C137.5,21.5277778 137.731481,21.4351852 137.962963,21.3888889 C138.287037,21.2962963 138.611111,21.2037037 138.935185,21.1111111 C139.166667,21.0648148 139.398148,20.9722222 139.675926,20.9259259 C136.805556,20.1388889 135.046296,17.5462963 135.046296,13.75 C135.046296,7.08333333 140.462963,0.787037037 146.203704,0.787037037 C150.277778,0.787037037 152.777778,3.65740741 152.777778,8.24074074 C152.777778,13.4722222 149.351852,18.75 144.861111,20.5555556 C143.703704,21.0185185 141.481481,21.5277778 140.509259,21.8518519 C143.055556,22.1759259 144.861111,23.9351852 145.740741,25.3703704 C146.342593,26.2962963 146.898148,27.2685185 147.916667,27.7777778 C148.194444,27.9166667 148.425926,28.0092593 148.75,28.0555556 C148.981481,28.1018519 149.351852,28.1481481 149.722222,28.1944444 C149.62963,28.3796296 149.583333,28.8888889 149.444444,29.1203704 L149.444444,29.1203704 Z M137.962963,22.1759259 C139.583333,22.2685185 140.416667,23.3796296 141.296296,24.5833333 C142.453704,26.1574074 143.888889,27.7777778 147.685185,28.2407407 C146.435185,27.6851852 145.694444,26.8518519 145,25.7407407 C143.842593,23.8888889 142.777778,22.1759259 139.444444,22.2685185 L139.398148,21.8055556 C139.305556,21.8518519 139.212963,21.8518519 139.12037,21.8518519 C138.796296,21.9444444 138.472222,22.037037 138.148148,22.1296296 C138.101852,22.1296296 138.009259,22.1759259 137.962963,22.1759259 L137.962963,22.1759259 Z M143.425926,1.99074074 C139.259259,3.56481481 135.833333,8.47222222 135.833333,13.6574074 C135.833333,16.712963 136.990741,18.8888889 139.074074,19.8148148 C138.37963,19.212963 138.009259,18.287037 138.009259,17.037037 C138.009259,13.8888889 140.787037,5.78703704 141.851852,3.84259259 C142.361111,3.05555556 142.87037,2.40740741 143.425926,1.99074074 L143.425926,1.99074074 Z M148.703704,2.03703704 C149.398148,2.63888889 149.722222,3.51851852 149.722222,4.76851852 C149.722222,8.05555556 146.805556,16.2037037 145.833333,18.0092593 C145.37037,18.7962963 144.907407,19.3981481 144.305556,19.8148148 C144.351852,19.8148148 144.398148,19.7685185 144.444444,19.7685185 C148.703704,18.0555556 151.898148,13.1018519 151.898148,8.19444444 C151.944444,5.09259259 150.787037,2.96296296 148.703704,2.03703704 L148.703704,2.03703704 Z M146.157407,2.03703704 C144.444444,2.03703704 143.472222,2.63888889 142.592593,4.21296296 C141.62037,6.01851852 138.842593,14.0740741 138.842593,17.037037 C138.842593,18.9351852 139.675926,19.7685185 141.62037,19.7685185 C143.333333,19.7685185 144.305556,19.1666667 145.185185,17.5925926 C146.203704,15.6944444 148.981481,7.73148148 148.981481,4.76851852 C148.935185,2.87037037 148.101852,2.03703704 146.157407,2.03703704 L146.157407,2.03703704 Z M193.611111,20.8796296 C192.777778,20.8796296 192.083333,20.5555556 191.62037,19.9074074 C191.018519,19.1203704 190.925926,17.962963 191.296296,16.6666667 L193.518519,9.72222222 L191.759259,9.72222222 L191.759259,9.30555556 C191.759259,9.30555556 192.083333,8.24074074 192.361111,8.24074074 L193.981481,8.24074074 L195.138889,4.53703704 L199.12037,4.39814815 L197.87037,8.24074074 L199.722222,8.24074074 L199.722222,8.65740741 C199.722222,8.65740741 199.351852,9.72222222 199.12037,9.72222222 L197.407407,9.72222222 L194.62963,18.5648148 C194.583333,18.7037037 194.62963,18.8425926 194.62963,18.8425926 C194.62963,18.8888889 194.722222,18.8888889 194.768519,18.8888889 C195.37037,18.8888889 195.87963,18.6111111 196.574074,17.3611111 L196.759259,17.037037 L198.101852,17.5462963 L197.916667,17.9166667 C196.990741,19.8611111 195.462963,20.8796296 193.611111,20.8796296 L193.611111,20.8796296 Z M194.62963,8.93518519 L194.62963,8.93518519 L192.083333,16.8981481 C191.759259,17.9166667 191.851852,18.8425926 192.268519,19.4444444 C192.592593,19.8611111 193.055556,20.0925926 193.611111,20.0925926 C194.259259,20.0925926 194.907407,19.9537037 195.416667,19.6296296 C194.907407,19.7685185 194.259259,19.7685185 193.981481,19.3518519 C193.796296,19.0740741 193.75,18.75 193.842593,18.3333333 L196.759259,9.02777778 L196.759259,9.02777778 L197.962963,5.23148148 L195.694444,5.32407407 L194.62963,8.93518519 L194.62963,8.93518519 Z M185.972222,20.8796296 C184.212963,20.8796296 183.287037,19.6296296 183.287037,18.3796296 C183.287037,17.2222222 183.796296,16.0185185 184.305556,14.9074074 C184.814815,13.75 185.324074,12.5925926 185.324074,11.4351852 C185.324074,10.7407407 185.092593,10.7407407 184.907407,10.7407407 C183.888889,10.7407407 183.009259,11.7592593 181.203704,15.0925926 L179.490741,20.6481481 L175.601852,20.6481481 L178.657407,10.9722222 C178.75,10.6481481 178.75,10.4166667 178.657407,10.3240741 C178.657407,10.3240741 178.611111,10.2314815 178.472222,10.2314815 C178.194444,10.2314815 177.87037,10.3240741 177.361111,11.4351852 L177.222222,11.7592593 L175.833333,11.2962963 L176.018519,10.8796296 C176.759259,9.25925926 178.194444,8.24074074 179.768519,8.24074074 C180.601852,8.24074074 181.296296,8.56481481 181.759259,9.16666667 C181.990741,9.49074074 182.222222,10 182.268519,10.7407407 C183.518519,9.02777778 184.907407,8.24074074 186.435185,8.24074074 C188.101852,8.24074074 189.12037,9.25925926 189.12037,11.0185185 C189.12037,12.7777778 188.287037,14.537037 187.638889,15.9722222 C187.222222,16.8981481 186.805556,17.7314815 186.805556,18.2407407 C186.805556,18.8888889 187.083333,18.8888889 187.222222,18.8888889 C187.731481,18.8888889 188.240741,18.6111111 189.027778,17.3611111 L189.212963,17.0833333 L190.509259,17.6388889 L190.324074,18.0092593 C189.444444,19.7685185 187.777778,20.8796296 185.972222,20.8796296 L185.972222,20.8796296 Z M184.953704,9.9537037 C185.509259,9.9537037 186.157407,10.2314815 186.157407,11.4814815 C186.157407,12.7777778 185.601852,14.0277778 185.046296,15.2777778 C184.537037,16.3888889 184.074074,17.4537037 184.074074,18.4259259 C184.074074,19.212963 184.675926,20.0925926 185.925926,20.0925926 C186.527778,20.0925926 187.083333,19.9537037 187.592593,19.6759259 C187.453704,19.7222222 187.314815,19.7222222 187.175926,19.7222222 C186.388889,19.7222222 185.972222,19.1666667 185.972222,18.287037 C185.972222,17.5925926 186.388889,16.712963 186.851852,15.6944444 C187.5,14.3518519 188.287037,12.6851852 188.287037,11.0648148 C188.287037,9.76851852 187.638889,9.12037037 186.388889,9.12037037 C185.694444,9.12037037 184.814815,9.30555556 183.703704,10.3240741 C184.166667,10.0462963 184.537037,9.9537037 184.953704,9.9537037 L184.953704,9.9537037 Z M176.712963,19.8148148 L178.935185,19.8148148 L180.509259,14.7685185 C180.972222,13.9351852 181.388889,13.1944444 181.759259,12.5925926 L181.25,12.3611111 C181.62037,11.2037037 181.574074,10.2314815 181.111111,9.62962963 C180.740741,9.12037037 180.185185,9.02777778 179.768519,9.02777778 C179.259259,9.02777778 178.75,9.16666667 178.333333,9.39814815 C178.703704,9.35185185 179.074074,9.49074074 179.305556,9.81481481 C179.537037,10.1388889 179.583333,10.6481481 179.398148,11.2037037 L176.712963,19.8148148 L176.712963,19.8148148 Z M170.925926,20.8796296 C169.305556,20.8796296 168.240741,19.8148148 168.240741,18.1944444 C168.240741,16.7592593 168.935185,15.3240741 169.62963,13.8888889 C170.185185,12.7314815 170.694444,11.6203704 170.694444,10.787037 C170.694444,10.2314815 170.555556,10.2314815 170.37037,10.2314815 C170.185185,10.2314815 169.583333,10.6944444 169.259259,11.4351852 L169.12037,11.7592593 L167.731481,11.2962963 L167.916667,10.8796296 C168.657407,9.21296296 170.138889,8.24074074 171.898148,8.24074074 C173.518519,8.24074074 174.444444,9.53703704 174.444444,10.787037 C174.444444,12.3611111 173.611111,14.0277778 172.916667,15.5092593 C172.407407,16.5740741 171.898148,17.5925926 171.898148,18.287037 C171.898148,18.9351852 172.12963,18.9351852 172.314815,18.9351852 C172.916667,18.9351852 173.425926,18.6574074 174.12037,17.4074074 L174.305556,17.0833333 L175.601852,17.6388889 L175.416667,18.0092593 C174.490741,19.7222222 172.731481,20.8796296 170.925926,20.8796296 L170.925926,20.8796296 Z M170.37037,9.44444444 C171.111111,9.44444444 171.527778,9.90740741 171.527778,10.787037 C171.527778,11.8055556 170.972222,13.0092593 170.37037,14.2592593 C169.722222,15.6018519 169.074074,16.9907407 169.074074,18.2407407 C169.074074,19.3981481 169.768519,20.0925926 170.925926,20.0925926 C171.481481,20.0925926 172.037037,19.9537037 172.592593,19.6759259 L172.268519,19.6759259 C171.898148,19.6759259 171.064815,19.537037 171.064815,18.2407407 C171.064815,17.4074074 171.574074,16.3425926 172.175926,15.1388889 C172.87037,13.75 173.611111,12.1759259 173.611111,10.787037 C173.611111,9.90740741 173.009259,9.07407407 171.898148,9.07407407 C171.342593,9.07407407 170.787037,9.21296296 170.324074,9.44444444 L170.37037,9.44444444 L170.37037,9.44444444 Z M163.055556,20.8796296 C162.12963,20.8796296 161.342593,20.5092593 160.833333,19.8148148 C160.601852,19.4907407 160.37037,19.0277778 160.324074,18.3796296 C159.074074,20.0925926 157.824074,20.8333333 156.342593,20.8333333 C154.62963,20.8333333 153.472222,19.7222222 153.472222,18.0555556 C153.472222,16.2962963 154.259259,14.4444444 154.907407,12.962963 C155.324074,11.9907407 155.694444,11.1111111 155.694444,10.6018519 C155.694444,10.2314815 155.648148,10.1851852 155.648148,10.1851852 L155.509259,10.1851852 C155.277778,10.1851852 154.861111,10.5555556 154.444444,11.3888889 L154.305556,11.712963 L152.962963,11.25 L153.148148,10.8333333 C153.888889,9.21296296 155.185185,8.24074074 156.805556,8.24074074 C158.37963,8.24074074 159.351852,9.16666667 159.351852,10.6944444 C159.351852,11.8518519 158.842593,13.0555556 158.333333,14.1666667 C157.824074,15.3240741 157.314815,16.4814815 157.314815,17.5925926 C157.314815,18.287037 157.546296,18.287037 157.731481,18.287037 C158.75,18.287037 159.583333,17.2685185 161.435185,13.9814815 L163.148148,8.42592593 L167.12963,8.33333333 L163.888889,18.5648148 C163.842593,18.75 163.842593,18.7962963 163.842593,18.8425926 C163.842593,18.8425926 163.935185,18.8888889 164.166667,18.8888889 C164.722222,18.8888889 165.092593,18.6574074 165.833333,17.4074074 L165.972222,17.1296296 L167.361111,17.5925926 L167.12963,18.0092593 C166.203704,19.8611111 164.768519,20.8796296 163.055556,20.8796296 L163.055556,20.8796296 Z M160.925926,16.5277778 L161.435185,16.7592593 C161.064815,17.8703704 161.111111,18.75 161.527778,19.3518519 C162.12963,20.1851852 163.657407,20.2777778 164.722222,19.6296296 C164.583333,19.6759259 164.398148,19.6759259 164.212963,19.6759259 C163.75,19.6759259 163.425926,19.537037 163.240741,19.2592593 C163.101852,19.0740741 163.009259,18.7962963 163.148148,18.287037 L166.018519,9.16666667 L163.75,9.30555556 L162.175926,14.3981481 C161.712963,15.2314815 161.296296,15.9259259 160.925926,16.5277778 L160.925926,16.5277778 Z M155.648148,9.39814815 C156.296296,9.39814815 156.62037,9.81481481 156.62037,10.6481481 C156.62037,11.2962963 156.25,12.1759259 155.740741,13.3333333 C155.138889,14.7685185 154.351852,16.5277778 154.351852,18.1018519 C154.351852,19.3518519 155.138889,20.0925926 156.388889,20.0925926 C157.12963,20.0925926 158.009259,19.9074074 159.027778,18.7962963 C158.611111,19.0740741 158.194444,19.212963 157.731481,19.212963 C157.268519,19.212963 156.481481,19.0277778 156.481481,17.6851852 C156.481481,16.3888889 157.037037,15.1388889 157.592593,13.8888889 C158.101852,12.7777778 158.564815,11.712963 158.564815,10.7407407 C158.564815,9.62962963 157.962963,9.07407407 156.851852,9.07407407 C156.388889,9.07407407 155.925926,9.16666667 155.509259,9.39814815 L155.648148,9.39814815 L155.648148,9.39814815 Z M173.287037,6.80555556 C172.175926,6.80555556 171.25,5.92592593 171.25,4.86111111 C171.25,3.7037037 172.12963,2.77777778 173.287037,2.77777778 C174.398148,2.77777778 175.231481,3.7037037 175.231481,4.86111111 C175.231481,5.92592593 174.351852,6.80555556 173.287037,6.80555556 L173.287037,6.80555556 Z M173.287037,3.61111111 C172.592593,3.61111111 172.037037,4.12037037 172.037037,4.86111111 C172.037037,5.50925926 172.592593,6.01851852 173.287037,6.01851852 C173.888889,6.01851852 174.444444,5.50925926 174.444444,4.86111111 C174.444444,4.16666667 173.935185,3.61111111 173.287037,3.61111111 L173.287037,3.61111111 Z" id="Shape"></path>
                            <polygon id="Shape" points="192.083333 8.00925926 191.574074 9.81481481 199.398148 9.81481481 200 8.00925926"></polygon>
                            <path d="M149.351852,4.72222222 C149.351852,7.87037037 146.527778,15.8796296 145.509259,17.7314815 C144.62963,19.3518519 143.518519,20.1388889 141.574074,20.1388889 C139.12037,20.1388889 138.425926,18.8425926 138.425926,17.037037 C138.425926,13.9351852 141.203704,5.87962963 142.222222,4.02777778 C143.148148,2.40740741 144.212963,1.62037037 146.157407,1.62037037 C148.657407,1.66666667 149.351852,2.96296296 149.351852,4.72222222 M152.314815,8.14814815 C152.314815,3.75 149.953704,1.11111111 146.157407,1.11111111 C140.555556,1.11111111 135.416667,7.36111111 135.416667,13.7037037 C135.416667,18.1018519 137.777778,20.7407407 141.574074,20.7407407 C141.666667,20.7407407 141.898148,20.6944444 141.990741,20.6944444 C141.898148,20.7407407 141.805556,20.7407407 141.712963,20.787037 C141.342593,20.8796296 140.972222,20.9722222 140.648148,21.0648148 C140.231481,21.1574074 139.814815,21.25 139.398148,21.3888889 C138.981481,21.4814815 138.564815,21.6203704 138.194444,21.712963 C137.87037,21.8055556 137.5,21.9444444 137.175926,22.037037 C137.037037,22.0833333 136.898148,22.0833333 136.805556,22.1296296 C136.712963,22.1759259 136.574074,22.2222222 136.481481,22.2685185 C136.388889,22.3148148 136.342593,22.3148148 136.296296,22.3611111 C136.296296,22.3611111 136.203704,22.4074074 136.203704,22.4537037 C136.203704,22.7314815 136.388889,22.962963 136.527778,22.962963 C136.712963,22.962963 137.12963,22.5462963 137.824074,22.5462963 C141.666667,22.5462963 140.601852,28.7037037 149.490741,28.7037037 C149.537037,28.7037037 149.537037,28.1481481 149.490741,28.1481481 C144.62963,28.1481481 146.111111,21.5740741 139.490741,21.8055556 C141.296296,21.3888889 142.962963,20.787037 144.722222,20.0462963 C148.935185,18.3796296 152.314815,13.287037 152.314815,8.14814815 M163.518519,18.4259259 L166.527778,8.75 L163.425926,8.88888889 L161.759259,14.2592593 C160,17.5 158.981481,18.7962963 157.731481,18.7962963 C157.083333,18.7962963 156.898148,18.3333333 156.898148,17.6851852 C156.898148,15.3240741 158.981481,12.9166667 158.981481,10.7407407 C158.981481,9.44444444 158.240741,8.65740741 156.851852,8.65740741 C155.462963,8.65740741 154.259259,9.49074074 153.564815,11.0185185 L154.166667,11.25 C154.62963,10.3240741 155.138889,9.81481481 155.601852,9.81481481 C156.018519,9.81481481 156.203704,10.0462963 156.203704,10.6481481 C156.203704,12.037037 153.935185,15.2314815 153.935185,18.1018519 C153.935185,19.6296296 154.953704,20.5092593 156.388889,20.5092593 C157.777778,20.5092593 159.212963,19.8148148 161.018519,16.6666667 C160.138889,19.3518519 161.574074,20.5092593 163.055556,20.5092593 C164.444444,20.5092593 165.833333,19.6759259 166.805556,17.8240741 L166.203704,17.5925926 C165.509259,18.8425926 165.046296,19.3055556 164.212963,19.3055556 C163.564815,19.2592593 163.333333,18.9814815 163.518519,18.4259259 M171.898148,8.65740741 C170.185185,8.65740741 168.888889,9.67592593 168.287037,11.0648148 L168.935185,11.2962963 C169.305556,10.5092593 170.046296,9.86111111 170.416667,9.86111111 C170.87963,9.86111111 171.157407,10.0462963 171.157407,10.8333333 C171.157407,12.8240741 168.703704,15.7407407 168.703704,18.2407407 C168.703704,19.537037 169.490741,20.5092593 170.972222,20.5092593 C172.685185,20.5092593 174.259259,19.3518519 175,17.8703704 L174.398148,17.6388889 C173.657407,18.9351852 173.055556,19.3518519 172.222222,19.3518519 C171.62037,19.3518519 171.435185,18.9351852 171.435185,18.3333333 C171.435185,16.6203704 173.981481,13.5185185 173.981481,10.8796296 C174.027778,9.72222222 173.240741,8.65740741 171.898148,8.65740741 M174.814815,4.86111111 C174.814815,3.93518519 174.12037,3.19444444 173.287037,3.19444444 C172.361111,3.19444444 171.666667,3.93518519 171.666667,4.86111111 C171.666667,5.69444444 172.361111,6.38888889 173.287037,6.38888889 C174.12037,6.38888889 174.814815,5.69444444 174.814815,4.86111111 M189.953704,17.8240741 L189.351852,17.5925926 C188.611111,18.7962963 188.009259,19.3055556 187.222222,19.3055556 C186.62037,19.3055556 186.388889,18.8888889 186.388889,18.287037 C186.388889,16.8518519 188.703704,13.9351852 188.703704,11.0648148 C188.703704,9.53703704 187.87037,8.7037037 186.435185,8.7037037 C185.046296,8.7037037 183.425926,9.35185185 181.62037,12.5462963 C182.407407,9.9537037 181.296296,8.7037037 179.768519,8.7037037 C178.240741,8.7037037 176.990741,9.72222222 176.342593,11.1111111 L176.944444,11.3425926 C177.453704,10.2314815 177.87037,9.90740741 178.425926,9.90740741 C178.935185,9.90740741 179.212963,10.4166667 178.981481,11.1574074 L176.064815,20.3240741 L179.12037,20.3240741 L180.787037,15 C182.546296,11.7592593 183.564815,10.462963 184.861111,10.462963 C185.509259,10.462963 185.648148,10.9259259 185.648148,11.5740741 C185.648148,13.9351852 183.611111,16.3425926 183.611111,18.5185185 C183.611111,19.6296296 184.444444,20.6018519 185.87963,20.6018519 C187.5,20.462963 189.12037,19.537037 189.953704,17.8240741 M199.305556,8.65740741 L197.314815,8.65740741 L198.518519,4.81481481 L195.416667,4.90740741 L194.259259,8.61111111 L192.361111,8.61111111 C192.268519,8.61111111 192.083333,9.30555556 192.12963,9.30555556 L194.027778,9.30555556 L191.666667,16.7592593 C191.018519,18.9351852 191.944444,20.462963 193.564815,20.462963 C195.231481,20.462963 196.574074,19.5833333 197.453704,17.8240741 L196.851852,17.5925926 C196.111111,18.8888889 195.509259,19.3055556 194.675926,19.3055556 C194.212963,19.3055556 194.027778,18.9351852 194.166667,18.4722222 L197.037037,9.35185185 L199.027778,9.35185185 C199.212963,9.30555556 199.351852,8.65740741 199.305556,8.65740741" id="Shape"></path>
                        </g>
                    </g>
                </g>
            </g>
        </g>
    </g>
</svg>